ffmpeg started on 2016-12-12 at 00:37:10
Report written to "Output/theora/results/ffmpeg/crowd_run_2160p501000k.log"
Command line:
Tools/ffmpeg/ffmpeg -benchmark -y -i Input/y4m/crowd_run_2160p50.y4m -c:v libtheora -b:v 1000k -an Output/theora/encoded/crowd_run_2160p501000k.mkv
ffmpeg version N-82227-gdb23fde Copyright (c) 2000-2016 the FFmpeg developers
  built with gcc 5.4.0 (Ubuntu 5.4.0-6ubuntu1~16.04.2) 20160609
  configuration: --prefix=/home/jaroslav/ffmpeg_build --pkg-config-flags=--static --extra-cflags=-I/home/jaroslav/ffmpeg_build/include --extra-ldflags=-L/home/jaroslav/ffmpeg_build/lib --bindir=/home/jaroslav/bin --enable-gpl --enable-libass --enable-libfdk-aac --enable-libfreetype --enable-libmp3lame --enable-libopus --enable-libtheora --enable-libvorbis --enable-libvpx --enable-libx264 --enable-libx265 --enable-nvenc --enable-libmfx --enable-libxvid --enable-libgsm --enable-libopencore-amrnb --enable-version3 --enable-nonfree
  libavutil      55. 35.100 / 55. 35.100
  libavcodec     57. 66.101 / 57. 66.101
  libavformat    57. 57.100 / 57. 57.100
  libavdevice    57.  2.100 / 57.  2.100
  libavfilter     6. 66.100 /  6. 66.100
  libswscale      4.  3.100 /  4.  3.100
  libswresample   2.  4.100 /  2.  4.100
  libpostproc    54.  2.100 / 54.  2.100
Input #0, yuv4mpegpipe, from 'Input/y4m/crowd_run_2160p50.y4m':
  Duration: 00:00:10.00, start: 0.000000, bitrate: 4976642 kb/s
    Stream #0:0: Video: rawvideo (I420 / 0x30323449), yuv420p(progressive), 3840x2160, SAR 1:1 DAR 16:9, 50 fps, 50 tbr, 50 tbn, 50 tbc
Output #0, matroska, to 'Output/theora/encoded/crowd_run_2160p501000k.mkv':
  Metadata:
    encoder         : Lavf57.57.100
    Stream #0:0: Video: theora (libtheora) (theo / 0x6F656874), yuv420p, 3840x2160 [SAR 1:1 DAR 16:9], q=2-31, 1000 kb/s, 50 fps, 1k tbn, 50 tbc
    Metadata:
      encoder         : Lavc57.66.101 libtheora
Stream mapping:
  Stream #0:0 -> #0:0 (rawvideo (native) -> theora (libtheora))
Press [q] to stop, [?] for help
frame=    3 fps=0.0 q=-0.0 size=       4kB time=00:00:00.04 bitrate= 779.5kbits/s speed=0.0529x    frame=    5 fps=3.4 q=-0.0 size=       4kB time=00:00:00.08 bitrate= 394.6kbits/s speed=0.0557x    frame=    7 fps=3.3 q=-0.0 size=       4kB time=00:00:00.12 bitrate= 264.1kbits/s speed=0.0566x    frame=    9 fps=3.2 q=-0.0 size=       4kB time=00:00:00.16 bitrate= 198.5kbits/s speed=0.0568x    frame=   10 fps=1.5 q=-0.0 size=       4kB time=00:00:00.18 bitrate= 176.6kbits/s speed=0.0267x    frame=   11 fps=1.0 q=-0.0 size=       4kB time=00:00:00.20 bitrate= 159.0kbits/s speed=0.0188x    frame=   12 fps=1.1 q=-0.0 size=       4kB time=00:00:00.22 bitrate= 144.6kbits/s speed=0.0197x    frame=   14 fps=1.2 q=-0.0 size=     131kB time=00:00:00.26 bitrate=4098.4kbits/s speed=0.0222x    frame=   16 fps=1.3 q=-0.0 size=     131kB time=00:00:00.30 bitrate=3553.8kbits/s speed=0.0243x    frame=   18 fps=1.4 q=-0.0 size=     131kB time=00:00:00.34 bitrate=3136.9kbits/s speed=0.026x    frame=   20 fps=1.5 q=-0.0 size=     131kB time=00:00:00.38 bitrate=2807.6kbits/s speed=0.0276x    frame=   22 fps=1.5 q=-0.0 size=     131kB time=00:00:00.42 bitrate=2540.8kbits/s speed=0.0291x    frame=   24 fps=1.6 q=-0.0 size=     131kB time=00:00:00.46 bitrate=2320.3kbits/s speed=0.0303x    frame=   26 fps=1.7 q=-0.0 size=     258kB time=00:00:00.50 bitrate=4220.5kbits/s speed=0.0318x    frame=   28 fps=1.7 q=-0.0 size=     258kB time=00:00:00.54 bitrate=3908.4kbits/s speed=0.033x    frame=   30 fps=1.8 q=-0.0 size=     258kB time=00:00:00.58 bitrate=3639.4kbits/s speed=0.034x    frame=   32 fps=1.8 q=-0.0 size=     258kB time=00:00:00.62 bitrate=3404.9kbits/s speed=0.0349x    frame=   34 fps=1.8 q=-0.0 size=     258kB time=00:00:00.66 bitrate=3198.9kbits/s speed=0.0358x    frame=   36 fps=1.9 q=-0.0 size=     258kB time=00:00:00.70 bitrate=3016.4kbits/s speed=0.0365x    frame=   38 fps=1.9 q=-0.0 size=     387kB time=00:00:00.74 bitrate=4274.2kbits/s speed=0.0376x    frame=   40 fps=2.0 q=-0.0 size=     387kB time=00:00:00.78 bitrate=4055.3kbits/s speed=0.0383x    frame=   42 fps=2.0 q=-0.0 size=     387kB time=00:00:00.82 bitrate=3857.7kbits/s speed=0.039x    frame=   44 fps=2.0 q=-0.0 size=     387kB time=00:00:00.86 bitrate=3678.5kbits/s speed=0.0395x    frame=   46 fps=2.0 q=-0.0 size=     387kB time=00:00:00.90 bitrate=3515.2kbits/s speed=0.0401x    frame=   48 fps=2.1 q=-0.0 size=     387kB time=00:00:00.94 bitrate=3365.8kbits/s speed=0.0406x    frame=   50 fps=2.1 q=-0.0 size=     512kB time=00:00:00.98 bitrate=4278.0kbits/s speed=0.0413x    frame=   52 fps=2.1 q=-0.0 size=     512kB time=00:00:01.02 bitrate=4110.4kbits/s speed=0.0419x    frame=   54 fps=2.2 q=-0.0 size=     512kB time=00:00:01.06 bitrate=3955.4kbits/s speed=0.0423x    frame=   56 fps=2.2 q=-0.0 size=     512kB time=00:00:01.10 bitrate=3811.7kbits/s speed=0.0427x    frame=   58 fps=2.2 q=-0.0 size=     512kB time=00:00:01.14 bitrate=3678.1kbits/s speed=0.0431x    frame=   60 fps=2.2 q=-0.0 size=     512kB time=00:00:01.18 bitrate=3553.5kbits/s speed=0.0434x    frame=   62 fps=2.2 q=-0.0 size=     639kB time=00:00:01.22 bitrate=4286.4kbits/s speed=0.044x    frame=   64 fps=2.3 q=-0.0 size=     639kB time=00:00:01.26 bitrate=4150.4kbits/s speed=0.0444x    frame=   66 fps=2.3 q=-0.0 size=     639kB time=00:00:01.30 bitrate=4022.8kbits/s speed=0.0447x    frame=   68 fps=2.3 q=-0.0 size=     639kB time=00:00:01.34 bitrate=3902.8kbits/s speed=0.045x    frame=   70 fps=2.3 q=-0.0 size=     639kB time=00:00:01.38 bitrate=3789.7kbits/s speed=0.0453x    frame=   72 fps=2.3 q=-0.0 size=     639kB time=00:00:01.42 bitrate=3683.1kbits/s speed=0.0456x    frame=   74 fps=2.3 q=-0.0 size=     764kB time=00:00:01.46 bitrate=4281.0kbits/s speed=0.046x    frame=   76 fps=2.3 q=-0.0 size=     764kB time=00:00:01.50 bitrate=4167.0kbits/s speed=0.0463x    frame=   78 fps=2.4 q=-0.0 size=     764kB time=00:00:01.54 bitrate=4058.8kbits/s speed=0.0466x    frame=   80 fps=2.4 q=-0.0 size=     764kB time=00:00:01.58 bitrate=3956.1kbits/s speed=0.0468x    frame=   82 fps=2.4 q=-0.0 size=     764kB time=00:00:01.62 bitrate=3858.5kbits/s speed=0.047x    frame=   84 fps=2.4 q=-0.0 size=     764kB time=00:00:01.66 bitrate=3765.6kbits/s speed=0.0472x    frame=   86 fps=2.4 q=-0.0 size=     888kB time=00:00:01.70 bitrate=4274.9kbits/s speed=0.0476x    frame=   88 fps=2.4 q=-0.0 size=     888kB time=00:00:01.74 bitrate=4176.7kbits/s speed=0.0478x    frame=   90 fps=2.4 q=-0.0 size=     888kB time=00:00:01.78 bitrate=4082.9kbits/s speed=0.048x    frame=   92 fps=2.4 q=-0.0 size=     888kB time=00:00:01.82 bitrate=3993.2kbits/s speed=0.0482x    frame=   94 fps=2.4 q=-0.0 size=     888kB time=00:00:01.86 bitrate=3907.4kbits/s speed=0.0483x    frame=   96 fps=2.4 q=-0.0 size=     888kB time=00:00:01.90 bitrate=3825.1kbits/s speed=0.0485x    frame=   98 fps=2.5 q=-0.0 size=    1011kB time=00:00:01.94 bitrate=4265.7kbits/s speed=0.0488x    frame=  100 fps=2.5 q=-0.0 size=    1011kB time=00:00:01.98 bitrate=4179.6kbits/s speed=0.049x    frame=  102 fps=2.5 q=-0.0 size=    1011kB time=00:00:02.02 bitrate=4096.9kbits/s speed=0.0492x    frame=  104 fps=2.5 q=-0.0 size=    1011kB time=00:00:02.06 bitrate=4017.4kbits/s speed=0.0493x    frame=  106 fps=2.5 q=-0.0 size=    1011kB time=00:00:02.10 bitrate=3940.9kbits/s speed=0.0495x    frame=  108 fps=2.5 q=-0.0 size=    1011kB time=00:00:02.14 bitrate=3867.2kbits/s speed=0.0496x    frame=  110 fps=2.5 q=-0.0 size=    1137kB time=00:00:02.18 bitrate=4270.4kbits/s speed=0.0499x    frame=  112 fps=2.5 q=-0.0 size=    1137kB time=00:00:02.22 bitrate=4193.5kbits/s speed=0.0501x    frame=  114 fps=2.5 q=-0.0 size=    1137kB time=00:00:02.26 bitrate=4119.3kbits/s speed=0.0502x    frame=  116 fps=2.5 q=-0.0 size=    1137kB time=00:00:02.30 bitrate=4047.7kbits/s speed=0.0503x    frame=  118 fps=2.5 q=-0.0 size=    1137kB time=00:00:02.34 bitrate=3978.6kbits/s speed=0.0504x    frame=  120 fps=2.5 q=-0.0 size=    1137kB time=00:00:02.38 bitrate=3911.7kbits/s speed=0.0505x    frame=  122 fps=2.6 q=-0.0 size=    1261kB time=00:00:02.42 bitrate=4266.8kbits/s speed=0.0508x    frame=  124 fps=2.5 q=-0.0 size=    1261kB time=00:00:02.46 bitrate=4197.4kbits/s speed=0.0506x    frame=  126 fps=2.6 q=-0.0 size=    1261kB time=00:00:02.50 bitrate=4130.3kbits/s speed=0.0507x    frame=  128 fps=2.6 q=-0.0 size=    1261kB time=00:00:02.54 bitrate=4065.3kbits/s speed=0.0508x    frame=  130 fps=2.6 q=-0.0 size=    1261kB time=00:00:02.58 bitrate=4002.3kbits/s speed=0.0509x    frame=  132 fps=2.6 q=-0.0 size=    1261kB time=00:00:02.62 bitrate=3941.2kbits/s speed=0.051x    frame=  134 fps=2.6 q=-0.0 size=    1386kB time=00:00:02.66 bitrate=4266.1kbits/s speed=0.0512x    frame=  136 fps=2.6 q=-0.0 size=    1386kB time=00:00:02.70 bitrate=4202.9kbits/s speed=0.0513x    frame=  138 fps=2.6 q=-0.0 size=    1386kB time=00:00:02.74 bitrate=4141.6kbits/s speed=0.0514x    frame=  140 fps=2.6 q=-0.0 size=    1386kB time=00:00:02.78 bitrate=4082.0kbits/s speed=0.0515x    frame=  142 fps=2.6 q=-0.0 size=    1386kB time=00:00:02.82 bitrate=4024.1kbits/s speed=0.0516x    frame=  144 fps=2.6 q=-0.0 size=    1386kB time=00:00:02.86 bitrate=3967.9kbits/s speed=0.0516x    frame=  146 fps=2.6 q=-0.0 size=    1509kB time=00:00:02.90 bitrate=4261.5kbits/s speed=0.0519x    frame=  148 fps=2.6 q=-0.0 size=    1509kB time=00:00:02.94 bitrate=4203.6kbits/s speed=0.052x    frame=  150 fps=2.6 q=-0.0 size=    1509kB time=00:00:02.98 bitrate=4147.2kbits/s speed=0.052x    frame=  152 fps=2.6 q=-0.0 size=    1509kB time=00:00:03.02 bitrate=4092.3kbits/s speed=0.0521x    frame=  154 fps=2.6 q=-0.0 size=    1509kB time=00:00:03.06 bitrate=4038.8kbits/s speed=0.0522x    frame=  156 fps=2.6 q=-0.0 size=    1509kB time=00:00:03.10 bitrate=3986.7kbits/s speed=0.0522x    frame=  158 fps=2.6 q=-0.0 size=    1634kB time=00:00:03.14 bitrate=4260.5kbits/s speed=0.0524x    frame=  160 fps=2.6 q=-0.0 size=    1634kB time=00:00:03.18 bitrate=4206.9kbits/s speed=0.0525x    frame=  162 fps=2.6 q=-0.0 size=    1634kB time=00:00:03.22 bitrate=4154.7kbits/s speed=0.0526x    frame=  164 fps=2.6 q=-0.0 size=    1634kB time=00:00:03.26 bitrate=4103.7kbits/s speed=0.0526x    frame=  166 fps=2.6 q=-0.0 size=    1634kB time=00:00:03.30 bitrate=4054.0kbits/s speed=0.0526x    frame=  168 fps=2.6 q=-0.0 size=    1634kB time=00:00:03.34 bitrate=4005.5kbits/s speed=0.0527x    frame=  170 fps=2.7 q=-0.0 size=    1759kB time=00:00:03.38 bitrate=4262.9kbits/s speed=0.0528x    frame=  172 fps=2.7 q=-0.0 size=    1759kB time=00:00:03.42 bitrate=4213.1kbits/s speed=0.0529x    frame=  174 fps=2.7 q=-0.0 size=    1759kB time=00:00:03.46 bitrate=4164.4kbits/s speed=0.053x    frame=  175 fps=2.7 q=-0.0 size=    1759kB time=00:00:03.48 bitrate=4140.4kbits/s speed=0.0528x    frame=  177 fps=2.7 q=-0.0 size=    1759kB time=00:00:03.52 bitrate=4093.4kbits/s speed=0.0528x    frame=  179 fps=2.7 q=-0.0 size=    1759kB time=00:00:03.56 bitrate=4047.4kbits/s speed=0.0529x    frame=  181 fps=2.7 q=-0.0 size=    1883kB time=00:00:03.60 bitrate=4284.8kbits/s speed=0.0529x    frame=  183 fps=2.7 q=-0.0 size=    1883kB time=00:00:03.64 bitrate=4237.7kbits/s speed=0.0531x    frame=  185 fps=2.7 q=-0.0 size=    1883kB time=00:00:03.68 bitrate=4191.6kbits/s speed=0.0531x    frame=  187 fps=2.7 q=-0.0 size=    1883kB time=00:00:03.72 bitrate=4146.6kbits/s speed=0.0532x    frame=  189 fps=2.7 q=-0.0 size=    1883kB time=00:00:03.76 bitrate=4102.5kbits/s speed=0.0532x    frame=  191 fps=2.7 q=-0.0 size=    1883kB time=00:00:03.80 bitrate=4059.3kbits/s speed=0.0533x    frame=  193 fps=2.7 q=-0.0 size=    2009kB time=00:00:03.84 bitrate=4284.3kbits/s speed=0.0533x    frame=  195 fps=2.7 q=-0.0 size=    2009kB time=00:00:03.88 bitrate=4240.1kbits/s speed=0.0535x    frame=  197 fps=2.7 q=-0.0 size=    2009kB time=00:00:03.92 bitrate=4196.9kbits/s speed=0.0535x    frame=  199 fps=2.7 q=-0.0 size=    2009kB time=00:00:03.96 bitrate=4154.5kbits/s speed=0.0535x    frame=  201 fps=2.7 q=-0.0 size=    2009kB time=00:00:04.00 bitrate=4113.0kbits/s speed=0.0536x    frame=  203 fps=2.7 q=-0.0 size=    2009kB time=00:00:04.04 bitrate=4072.3kbits/s speed=0.0536x    frame=  205 fps=2.7 q=-0.0 size=    2135kB time=00:00:04.08 bitrate=4286.2kbits/s speed=0.0536x    frame=  207 fps=2.7 q=-0.0 size=    2135kB time=00:00:04.12 bitrate=4244.6kbits/s speed=0.0538x    frame=  209 fps=2.7 q=-0.0 size=    2135kB time=00:00:04.16 bitrate=4203.8kbits/s speed=0.0538x    frame=  211 fps=2.7 q=-0.0 size=    2135kB time=00:00:04.20 bitrate=4163.8kbits/s speed=0.0539x    frame=  213 fps=2.7 q=-0.0 size=    2135kB time=00:00:04.24 bitrate=4124.5kbits/s speed=0.0539x    frame=  215 fps=2.7 q=-0.0 size=    2135kB time=00:00:04.28 bitrate=4086.0kbits/s speed=0.0539x    frame=  217 fps=2.7 q=-0.0 size=    2262kB time=00:00:04.32 bitrate=4289.0kbits/s speed=0.0539x    frame=  219 fps=2.7 q=-0.0 size=    2262kB time=00:00:04.36 bitrate=4249.7kbits/s speed=0.0541x    frame=  221 fps=2.7 q=-0.0 size=    2262kB time=00:00:04.40 bitrate=4211.1kbits/s speed=0.0541x    frame=  223 fps=2.7 q=-0.0 size=    2262kB time=00:00:04.44 bitrate=4173.1kbits/s speed=0.0541x    frame=  225 fps=2.7 q=-0.0 size=    2262kB time=00:00:04.48 bitrate=4135.9kbits/s speed=0.0542x    frame=  227 fps=2.7 q=-0.0 size=    2262kB time=00:00:04.52 bitrate=4099.3kbits/s speed=0.0542x    frame=  229 fps=2.7 q=-0.0 size=    2389kB time=00:00:04.56 bitrate=4291.6kbits/s speed=0.0542x    frame=  231 fps=2.7 q=-0.0 size=    2389kB time=00:00:04.60 bitrate=4254.3kbits/s speed=0.0543x    frame=  233 fps=2.7 q=-0.0 size=    2389kB time=00:00:04.64 bitrate=4217.6kbits/s speed=0.0544x    frame=  235 fps=2.7 q=-0.0 size=    2389kB time=00:00:04.68 bitrate=4181.6kbits/s speed=0.0544x    frame=  237 fps=2.7 q=-0.0 size=    2389kB time=00:00:04.72 bitrate=4146.2kbits/s speed=0.0544x    frame=  239 fps=2.7 q=-0.0 size=    2389kB time=00:00:04.76 bitrate=4111.3kbits/s speed=0.0544x    frame=  241 fps=2.7 q=-0.0 size=    2518kB time=00:00:04.80 bitrate=4295.7kbits/s speed=0.0544x    frame=  243 fps=2.7 q=-0.0 size=    2518kB time=00:00:04.84 bitrate=4260.2kbits/s speed=0.0546x    frame=  245 fps=2.7 q=-0.0 size=    2518kB time=00:00:04.88 bitrate=4225.3kbits/s speed=0.0546x    frame=  247 fps=2.7 q=-0.0 size=    2518kB time=00:00:04.92 bitrate=4191.0kbits/s speed=0.0546x    frame=  249 fps=2.7 q=-0.0 size=    2518kB time=00:00:04.96 bitrate=4157.2kbits/s speed=0.0546x    frame=  251 fps=2.7 q=-0.0 size=    2518kB time=00:00:05.00 bitrate=4123.9kbits/s speed=0.0546x    frame=  253 fps=2.7 q=-0.0 size=    2645kB time=00:00:05.04 bitrate=4298.5kbits/s speed=0.0547x    frame=  255 fps=2.7 q=-0.0 size=    2645kB time=00:00:05.08 bitrate=4264.6kbits/s speed=0.0548x    frame=  257 fps=2.8 q=-0.0 size=    2645kB time=00:00:05.12 bitrate=4231.3kbits/s speed=0.0548x    frame=  259 fps=2.8 q=-0.0 size=    2645kB time=00:00:05.16 bitrate=4198.5kbits/s speed=0.0548x    frame=  261 fps=2.8 q=-0.0 size=    2645kB time=00:00:05.20 bitrate=4166.2kbits/s speed=0.0548x    frame=  263 fps=2.8 q=-0.0 size=    2645kB time=00:00:05.24 bitrate=4134.4kbits/s speed=0.0549x    frame=  265 fps=2.8 q=-0.0 size=    2772kB time=00:00:05.28 bitrate=4300.7kbits/s speed=0.0549x    frame=  267 fps=2.8 q=-0.0 size=    2772kB time=00:00:05.32 bitrate=4268.4kbits/s speed=0.055x    frame=  269 fps=2.8 q=-0.0 size=    2772kB time=00:00:05.36 bitrate=4236.5kbits/s speed=0.055x    frame=  271 fps=2.8 q=-0.0 size=    2772kB time=00:00:05.40 bitrate=4205.1kbits/s speed=0.055x    frame=  273 fps=2.8 q=-0.0 size=    2772kB time=00:00:05.44 bitrate=4174.2kbits/s speed=0.055x    frame=  275 fps=2.8 q=-0.0 size=    2772kB time=00:00:05.48 bitrate=4143.8kbits/s speed=0.055x    frame=  277 fps=2.8 q=-0.0 size=    2900kB time=00:00:05.52 bitrate=4302.6kbits/s speed=0.055x    frame=  279 fps=2.8 q=-0.0 size=    2900kB time=00:00:05.56 bitrate=4271.7kbits/s speed=0.0552x    frame=  281 fps=2.8 q=-0.0 size=    2900kB time=00:00:05.60 bitrate=4241.2kbits/s speed=0.0552x    frame=  282 fps=2.8 q=-0.0 size=    2900kB time=00:00:05.62 bitrate=4226.1kbits/s speed=0.055x    frame=  284 fps=2.8 q=-0.0 size=    2900kB time=00:00:05.66 bitrate=4196.2kbits/s speed=0.0551x    frame=  286 fps=2.8 q=-0.0 size=    2900kB time=00:00:05.70 bitrate=4166.8kbits/s speed=0.0551x    frame=  288 fps=2.8 q=-0.0 size=    2900kB time=00:00:05.74 bitrate=4137.7kbits/s speed=0.0551x    frame=  290 fps=2.8 q=-0.0 size=    3028kB time=00:00:05.78 bitrate=4290.5kbits/s speed=0.0552x    frame=  292 fps=2.8 q=-0.0 size=    3028kB time=00:00:05.82 bitrate=4261.0kbits/s speed=0.0552x    frame=  294 fps=2.8 q=-0.0 size=    3028kB time=00:00:05.86 bitrate=4231.9kbits/s speed=0.0552x    frame=  296 fps=2.8 q=-0.0 size=    3028kB time=00:00:05.90 bitrate=4203.3kbits/s speed=0.0552x    frame=  298 fps=2.8 q=-0.0 size=    3028kB time=00:00:05.94 bitrate=4175.0kbits/s speed=0.0552x    frame=  300 fps=2.8 q=-0.0 size=    3028kB time=00:00:05.98 bitrate=4147.0kbits/s speed=0.0552x    frame=  302 fps=2.8 q=-0.0 size=    3155kB time=00:00:06.02 bitrate=4293.3kbits/s speed=0.0553x    frame=  304 fps=2.8 q=-0.0 size=    3155kB time=00:00:06.06 bitrate=4264.9kbits/s speed=0.0554x    frame=  306 fps=2.8 q=-0.0 size=    3155kB time=00:00:06.10 bitrate=4237.0kbits/s speed=0.0554x    frame=  308 fps=2.8 q=-0.0 size=    3155kB time=00:00:06.14 bitrate=4209.4kbits/s speed=0.0554x    frame=  310 fps=2.8 q=-0.0 size=    3155kB time=00:00:06.18 bitrate=4182.1kbits/s speed=0.0554x    frame=  312 fps=2.8 q=-0.0 size=    3155kB time=00:00:06.22 bitrate=4155.2kbits/s speed=0.0554x    frame=  314 fps=2.8 q=-0.0 size=    3281kB time=00:00:06.26 bitrate=4293.3kbits/s speed=0.0555x    frame=  316 fps=2.8 q=-0.0 size=    3281kB time=00:00:06.30 bitrate=4266.0kbits/s speed=0.0555x    frame=  318 fps=2.8 q=-0.0 size=    3281kB time=00:00:06.34 bitrate=4239.1kbits/s speed=0.0555x    frame=  320 fps=2.8 q=-0.0 size=    3281kB time=00:00:06.38 bitrate=4212.5kbits/s speed=0.0555x    frame=  322 fps=2.8 q=-0.0 size=    3281kB time=00:00:06.42 bitrate=4186.3kbits/s speed=0.0555x    frame=  324 fps=2.8 q=-0.0 size=    3281kB time=00:00:06.46 bitrate=4160.4kbits/s speed=0.0555x    frame=  326 fps=2.8 q=-0.0 size=    3405kB time=00:00:06.50 bitrate=4290.2kbits/s speed=0.0555x    frame=  328 fps=2.8 q=-0.0 size=    3405kB time=00:00:06.54 bitrate=4263.9kbits/s speed=0.0556x    frame=  330 fps=2.8 q=-0.0 size=    3405kB time=00:00:06.58 bitrate=4238.0kbits/s speed=0.0556x    frame=  332 fps=2.8 q=-0.0 size=    3405kB time=00:00:06.62 bitrate=4212.4kbits/s speed=0.0556x    frame=  334 fps=2.8 q=-0.0 size=    3405kB time=00:00:06.66 bitrate=4187.1kbits/s speed=0.0556x    frame=  336 fps=2.8 q=-0.0 size=    3405kB time=00:00:06.70 bitrate=4162.1kbits/s speed=0.0556x    frame=  338 fps=2.8 q=-0.0 size=    3531kB time=00:00:06.74 bitrate=4290.5kbits/s speed=0.0557x    frame=  340 fps=2.8 q=-0.0 size=    3531kB time=00:00:06.78 bitrate=4265.2kbits/s speed=0.0557x    frame=  342 fps=2.8 q=-0.0 size=    3531kB time=00:00:06.82 bitrate=4240.1kbits/s speed=0.0557x    frame=  344 fps=2.8 q=-0.0 size=    3531kB time=00:00:06.86 bitrate=4215.4kbits/s speed=0.0557x    frame=  346 fps=2.8 q=-0.0 size=    3531kB time=00:00:06.90 bitrate=4191.0kbits/s speed=0.0557x    frame=  348 fps=2.8 q=-0.0 size=    3531kB time=00:00:06.94 bitrate=4166.8kbits/s speed=0.0557x    frame=  350 fps=2.8 q=-0.0 size=    3657kB time=00:00:06.98 bitrate=4291.2kbits/s speed=0.0558x    frame=  352 fps=2.8 q=-0.0 size=    3657kB time=00:00:07.02 bitrate=4266.8kbits/s speed=0.0558x    frame=  354 fps=2.8 q=-0.0 size=    3657kB time=00:00:07.06 bitrate=4242.6kbits/s speed=0.0558x    frame=  356 fps=2.8 q=-0.0 size=    3657kB time=00:00:07.10 bitrate=4218.7kbits/s speed=0.0558x    frame=  358 fps=2.8 q=-0.0 size=    3657kB time=00:00:07.14 bitrate=4195.1kbits/s speed=0.0558x    frame=  360 fps=2.8 q=-0.0 size=    3657kB time=00:00:07.18 bitrate=4171.7kbits/s speed=0.0558x    frame=  362 fps=2.8 q=-0.0 size=    3783kB time=00:00:07.22 bitrate=4291.7kbits/s speed=0.0559x    frame=  364 fps=2.8 q=-0.0 size=    3783kB time=00:00:07.26 bitrate=4268.0kbits/s speed=0.0559x    frame=  366 fps=2.8 q=-0.0 size=    3783kB time=00:00:07.30 bitrate=4244.7kbits/s speed=0.0559x    frame=  368 fps=2.8 q=-0.0 size=    3783kB time=00:00:07.34 bitrate=4221.5kbits/s speed=0.0559x    frame=  370 fps=2.8 q=-0.0 size=    3783kB time=00:00:07.38 bitrate=4198.7kbits/s speed=0.0559x    frame=  372 fps=2.8 q=-0.0 size=    3783kB time=00:00:07.42 bitrate=4176.0kbits/s speed=0.0559x    frame=  374 fps=2.8 q=-0.0 size=    3910kB time=00:00:07.46 bitrate=4292.9kbits/s speed=0.056x    frame=  376 fps=2.8 q=-0.0 size=    3910kB time=00:00:07.50 bitrate=4270.0kbits/s speed=0.056x    frame=  378 fps=2.8 q=-0.0 size=    3910kB time=00:00:07.54 bitrate=4247.4kbits/s speed=0.056x    frame=  380 fps=2.8 q=-0.0 size=    3910kB time=00:00:07.58 bitrate=4225.0kbits/s speed=0.056x    frame=  382 fps=2.8 q=-0.0 size=    3910kB time=00:00:07.62 bitrate=4202.8kbits/s speed=0.056x    frame=  384 fps=2.8 q=-0.0 size=    3910kB time=00:00:07.66 bitrate=4180.8kbits/s speed=0.056x    frame=  386 fps=2.8 q=-0.0 size=    4035kB time=00:00:07.70 bitrate=4292.5kbits/s speed=0.0561x    frame=  388 fps=2.8 q=-0.0 size=    4035kB time=00:00:07.74 bitrate=4270.3kbits/s speed=0.0561x    frame=  390 fps=2.8 q=-0.0 size=    4035kB time=00:00:07.78 bitrate=4248.4kbits/s speed=0.0561x    frame=  392 fps=2.8 q=-0.0 size=    4035kB time=00:00:07.82 bitrate=4226.7kbits/s speed=0.0561x    frame=  394 fps=2.8 q=-0.0 size=    4035kB time=00:00:07.86 bitrate=4205.2kbits/s speed=0.0561x    frame=  396 fps=2.8 q=-0.0 size=    4035kB time=00:00:07.90 bitrate=4183.9kbits/s speed=0.0561x    frame=  398 fps=2.8 q=-0.0 size=    4159kB time=00:00:07.94 bitrate=4290.8kbits/s speed=0.0561x    frame=  400 fps=2.8 q=-0.0 size=    4159kB time=00:00:07.98 bitrate=4269.3kbits/s speed=0.0561x    frame=  402 fps=2.8 q=-0.0 size=    4159kB time=00:00:08.02 bitrate=4248.0kbits/s speed=0.0561x    frame=  404 fps=2.8 q=-0.0 size=    4159kB time=00:00:08.06 bitrate=4226.9kbits/s speed=0.0561x    frame=  406 fps=2.8 q=-0.0 size=    4159kB time=00:00:08.10 bitrate=4206.1kbits/s speed=0.0561x    frame=  408 fps=2.8 q=-0.0 size=    4159kB time=00:00:08.14 bitrate=4185.4kbits/s speed=0.0561x    frame=  410 fps=2.8 q=-0.0 size=    4282kB time=00:00:08.18 bitrate=4287.7kbits/s speed=0.0562x    frame=  412 fps=2.8 q=-0.0 size=    4282kB time=00:00:08.22 bitrate=4266.8kbits/s speed=0.0562x    frame=  414 fps=2.8 q=-0.0 size=    4282kB time=00:00:08.26 bitrate=4246.2kbits/s speed=0.0562x    frame=  416 fps=2.8 q=-0.0 size=    4282kB time=00:00:08.30 bitrate=4225.7kbits/s speed=0.0562x    frame=  418 fps=2.8 q=-0.0 size=    4282kB time=00:00:08.34 bitrate=4205.4kbits/s speed=0.0562x    frame=  420 fps=2.8 q=-0.0 size=    4282kB time=00:00:08.38 bitrate=4185.4kbits/s speed=0.0561x    frame=  422 fps=2.8 q=-0.0 size=    4400kB time=00:00:08.42 bitrate=4280.4kbits/s speed=0.0562x    frame=  424 fps=2.8 q=-0.0 size=    4400kB time=00:00:08.46 bitrate=4260.1kbits/s speed=0.0562x    frame=  426 fps=2.8 q=-0.0 size=    4400kB time=00:00:08.50 bitrate=4240.1kbits/s speed=0.0562x    frame=  428 fps=2.8 q=-0.0 size=    4400kB time=00:00:08.54 bitrate=4220.2kbits/s speed=0.0562x    frame=  430 fps=2.8 q=-0.0 size=    4400kB time=00:00:08.58 bitrate=4200.6kbits/s speed=0.0562x    frame=  432 fps=2.8 q=-0.0 size=    4400kB time=00:00:08.62 bitrate=4181.1kbits/s speed=0.0562x    frame=  434 fps=2.8 q=-0.0 size=    4517kB time=00:00:08.66 bitrate=4272.8kbits/s speed=0.0562x    frame=  436 fps=2.8 q=-0.0 size=    4517kB time=00:00:08.70 bitrate=4253.2kbits/s speed=0.0562x    frame=  438 fps=2.8 q=-0.0 size=    4517kB time=00:00:08.74 bitrate=4233.7kbits/s speed=0.0562x    frame=  440 fps=2.8 q=-0.0 size=    4517kB time=00:00:08.78 bitrate=4214.4kbits/s speed=0.0562x    frame=  442 fps=2.8 q=-0.0 size=    4517kB time=00:00:08.82 bitrate=4195.3kbits/s speed=0.0562x    frame=  444 fps=2.8 q=-0.0 size=    4517kB time=00:00:08.86 bitrate=4176.4kbits/s speed=0.0562x    frame=  446 fps=2.8 q=-0.0 size=    4638kB time=00:00:08.90 bitrate=4268.6kbits/s speed=0.0563x    frame=  448 fps=2.8 q=-0.0 size=    4638kB time=00:00:08.94 bitrate=4249.5kbits/s speed=0.0563x    frame=  450 fps=2.8 q=-0.0 size=    4638kB time=00:00:08.98 bitrate=4230.6kbits/s speed=0.0563x    frame=  452 fps=2.8 q=-0.0 size=    4638kB time=00:00:09.02 bitrate=4211.8kbits/s speed=0.0563x    frame=  454 fps=2.8 q=-0.0 size=    4638kB time=00:00:09.06 bitrate=4193.2kbits/s speed=0.0563x    frame=  456 fps=2.8 q=-0.0 size=    4638kB time=00:00:09.10 bitrate=4174.8kbits/s speed=0.0562x    frame=  458 fps=2.8 q=-0.0 size=    4762kB time=00:00:09.14 bitrate=4267.6kbits/s speed=0.0563x    frame=  460 fps=2.8 q=-0.0 size=    4762kB time=00:00:09.18 bitrate=4249.1kbits/s speed=0.0563x    frame=  462 fps=2.8 q=-0.0 size=    4762kB time=00:00:09.22 bitrate=4230.6kbits/s speed=0.0563x    frame=  464 fps=2.8 q=-0.0 size=    4762kB time=00:00:09.26 bitrate=4212.4kbits/s speed=0.0563x    frame=  466 fps=2.8 q=-0.0 size=    4762kB time=00:00:09.30 bitrate=4194.2kbits/s speed=0.0563x    frame=  468 fps=2.8 q=-0.0 size=    4762kB time=00:00:09.34 bitrate=4176.3kbits/s speed=0.0563x    frame=  470 fps=2.8 q=-0.0 size=    4884kB time=00:00:09.38 bitrate=4264.9kbits/s speed=0.0563x    frame=  472 fps=2.8 q=-0.0 size=    4884kB time=00:00:09.42 bitrate=4246.8kbits/s speed=0.0564x    frame=  474 fps=2.8 q=-0.0 size=    4884kB time=00:00:09.46 bitrate=4228.8kbits/s speed=0.0564x    frame=  475 fps=2.8 q=-0.0 size=    4884kB time=00:00:09.48 bitrate=4219.9kbits/s speed=0.0562x    frame=  477 fps=2.8 q=-0.0 size=    4884kB time=00:00:09.52 bitrate=4202.2kbits/s speed=0.0562x    frame=  479 fps=2.8 q=-0.0 size=    4884kB time=00:00:09.56 bitrate=4184.6kbits/s speed=0.0562x    frame=  481 fps=2.8 q=-0.0 size=    5008kB time=00:00:09.60 bitrate=4273.3kbits/s speed=0.0562x    frame=  483 fps=2.8 q=-0.0 size=    5008kB time=00:00:09.64 bitrate=4255.6kbits/s speed=0.0563x    frame=  485 fps=2.8 q=-0.0 size=    5008kB time=00:00:09.68 bitrate=4238.0kbits/s speed=0.0563x    frame=  487 fps=2.8 q=-0.0 size=    5008kB time=00:00:09.72 bitrate=4220.6kbits/s speed=0.0563x    frame=  489 fps=2.8 q=-0.0 size=    5008kB time=00:00:09.76 bitrate=4203.3kbits/s speed=0.0563x    frame=  491 fps=2.8 q=-0.0 size=    5008kB time=00:00:09.80 bitrate=4186.1kbits/s speed=0.0563x    frame=  493 fps=2.8 q=-0.0 size=    5132kB time=00:00:09.84 bitrate=4272.4kbits/s speed=0.0563x    frame=  495 fps=2.8 q=-0.0 size=    5132kB time=00:00:09.88 bitrate=4255.1kbits/s speed=0.0563x    frame=  497 fps=2.8 q=-0.0 size=    5132kB time=00:00:09.92 bitrate=4237.9kbits/s speed=0.0563x    frame=  499 fps=2.8 q=-0.0 size=    5132kB time=00:00:09.96 bitrate=4220.9kbits/s speed=0.0563x    frame=  500 fps=2.8 q=-0.0 size=    5132kB time=00:00:09.98 bitrate=4212.5kbits/s speed=0.0562x    frame=  500 fps=2.8 q=-0.0 Lsize=    5258kB time=00:00:09.98 bitrate=4315.3kbits/s speed=0.0562x    
video:5249kB audio:0kB subtitle:0kB other streams:0kB global headers:3kB muxing overhead: 0.163754%
bench: utime=156.956s
bench: maxrss=183416kB
